<svg xmlns="http://www.w3.org/2000/svg" viewBox="0 0 512 512" role="img" aria-label="考试 AI 题库">
  <rect width="512" height="512" rx="96" fill="#0f8f69"/>
  <path d="M170 156c0-28 23-51 51-51 17 0 32 8 41 21 9-13 24-21 41-21 28 0 51 23 51 51 0 15-7 29-17 38 20 8 34 27 34 50 0 29-23 52-52 52h-7v34c0 31-25 56-56 56s-56-25-56-56v-34h-7c-29 0-52-23-52-52 0-23 14-42 34-50-10-9-17-23-17-38Z" fill="#ffffff" opacity=".94"/>
  <path d="M220 181h-34m34 50h-34m140 0h-34m34-50h-34m-36-48v230m-74-69 37-37m111 37-37-37" fill="none" stroke="#0f8f69" stroke-width="22" stroke-linecap="round" stroke-linejoin="round"/>
  <path d="M147 374h218" stroke="#ffffff" stroke-width="26" stroke-linecap="round"/>
</svg>
